<svg xmlns="http://www.w3.org/2000/svg" width="76.14" height="108.143" viewBox="0 0 76.14 108.143">
  <g id="attachment-attach-svgrepo-com" transform="translate(-1495.547 863.68)">
    <g id="Group_37352" data-name="Group 37352" transform="translate(1495.547 -863.679)">
      <path id="Path_39015" data-name="Path 39015" d="M92,7.444c-7.631-9.925-19.842-9.925-27.473,0L28.311,54.726a2.125,2.125,0,0,0,0,2.527,1.142,1.142,0,0,0,1.943,0L66.468,9.971c6.521-8.482,17.066-8.482,23.588,0s6.521,22.2,0,30.679L44.406,100.022c-4.579,5.955-12.071,5.955-16.65,0s-4.579-15.7,0-21.656l36.769-48c2.775-3.429,7.076-3.609,9.851,0,2.636,3.609,2.636,9.384,0,12.813L46.9,79.088a2.125,2.125,0,0,0,0,2.527,1.142,1.142,0,0,0,1.943,0L76.319,45.883c3.746-4.873,3.746-12.993,0-17.866s-9.99-4.873-13.736,0L25.813,75.84c-5.689,7.218-5.689,19.31,0,26.708a12.687,12.687,0,0,0,10.268,5.594,12.687,12.687,0,0,0,10.268-5.594L92,43.176A29.737,29.737,0,0,0,97.687,25.31,29.739,29.739,0,0,0,92,7.444Z" transform="translate(-21.547 0)" fill="#990e47"/>
    </g>
  </g>
</svg>
